<svg width="38" height="51" viewBox="0 0 38 51" fill="none" xmlns="http://www.w3.org/2000/svg">
<path d="M38 25.2863C38 24.6259 37.7498 23.9926 37.3044 23.5256C36.859 23.0586 36.2549 22.7963 35.625 22.7963H17.5987L23.0612 17.0942C23.2838 16.8627 23.4605 16.5873 23.5811 16.2839C23.7017 15.9805 23.7638 15.655 23.7638 15.3263C23.7638 14.9976 23.7017 14.6721 23.5811 14.3687C23.4605 14.0653 23.2838 13.7899 23.0612 13.5584C22.8405 13.325 22.5778 13.1398 22.2884 13.0133C21.9989 12.8869 21.6885 12.8219 21.375 12.8219C21.0615 12.8219 20.751 12.8869 20.4616 13.0133C20.1722 13.1398 19.9095 13.325 19.6887 13.5584L10.1887 23.5184C9.97252 23.7552 9.80303 24.0344 9.68999 24.3401C9.45245 24.9463 9.45245 25.6263 9.68999 26.2325C9.80303 26.5381 9.97252 26.8174 10.1887 27.0542L19.6887 37.0142C19.9102 37.2463 20.1731 37.4305 20.4624 37.5562C20.7517 37.6818 21.0618 37.7465 21.375 37.7465C21.6882 37.7465 21.9983 37.6818 22.2876 37.5562C22.5769 37.4305 22.8398 37.2463 23.0612 37.0142C23.2827 36.782 23.4583 36.5064 23.5782 36.2031C23.698 35.8997 23.7597 35.5746 23.7597 35.2463C23.7597 34.918 23.698 34.5928 23.5782 34.2895C23.4583 33.9862 23.2827 33.7105 23.0612 33.4784L17.5987 27.7763H35.625C36.2549 27.7763 36.859 27.5139 37.3044 27.047C37.7498 26.58 38 25.9467 38 25.2863V25.2863ZM7.12499 50.1863H30.875C32.7647 50.1863 34.5769 49.3993 35.9131 47.9984C37.2493 46.5975 38 44.6974 38 42.7163V35.2463C38 34.5859 37.7498 33.9526 37.3044 33.4856C36.859 33.0186 36.2549 32.7563 35.625 32.7563C34.9951 32.7563 34.391 33.0186 33.9456 33.4856C33.5002 33.9526 33.25 34.5859 33.25 35.2463V42.7163C33.25 43.3767 32.9998 44.01 32.5544 44.477C32.109 44.9439 31.5049 45.2063 30.875 45.2063H7.12499C6.4951 45.2063 5.89101 44.9439 5.44561 44.477C5.00021 44.01 4.74999 43.3767 4.74999 42.7163V7.85629C4.74999 7.1959 5.00021 6.56256 5.44561 6.09559C5.89101 5.62863 6.4951 5.36629 7.12499 5.36629H30.875C31.5049 5.36629 32.109 5.62863 32.5544 6.09559C32.9998 6.56256 33.25 7.1959 33.25 7.85629V15.3263C33.25 15.9867 33.5002 16.62 33.9456 17.087C34.391 17.5539 34.9951 17.8163 35.625 17.8163C36.2549 17.8163 36.859 17.5539 37.3044 17.087C37.7498 16.62 38 15.9867 38 15.3263V7.85629C38 5.87512 37.2493 3.9751 35.9131 2.5742C34.5769 1.17331 32.7647 0.386293 30.875 0.386293H7.12499C5.23532 0.386293 3.42305 1.17331 2.08685 2.5742C0.750652 3.9751 -1.52588e-05 5.87512 -1.52588e-05 7.85629V42.7163C-1.52588e-05 44.6974 0.750652 46.5975 2.08685 47.9984C3.42305 49.3993 5.23532 50.1863 7.12499 50.1863Z" fill="#FA6A0A"/>
</svg>
