<svg width="69" height="108" viewBox="0 0 69 108" fill="none" xmlns="http://www.w3.org/2000/svg">
<path d="M31.2235 68L29.1563 70.8048C27.5052 73.0468 26.2909 75.0583 25.7328 77.5929C25.2166 79.9388 25.2833 82.7293 25.9503 86.3052L34.1053 84.5586L23.444 104.611L5.50528 90.684L13.7047 88.9279C12.6894 83.0233 13.6683 78.2524 16.6257 74.731C19.0786 71.8141 22.8969 69.7833 27.9869 68.6932L31.2235 68Z" fill="white"/>
<path d="M6.92947 58.831L34.6471 72.4142C36.596 73.3693 38.5653 73.5064 40.5551 72.8254C42.5448 72.1444 44.0172 70.8295 44.9723 68.8806L65.3471 27.3042C66.3022 25.3553 66.4392 23.386 65.7583 21.3962C65.0773 19.4065 63.7624 17.9341 61.8135 16.979L34.0959 3.3958C32.147 2.44073 30.1777 2.30368 28.1879 2.98463C26.1982 3.66558 24.7258 4.98051 23.7707 6.9294L3.39588 48.5058C2.44081 50.4547 2.30375 52.424 2.9847 54.4138C3.66566 56.4035 4.98058 57.876 6.92947 58.831ZM28.4264 9.21096C29.1692 7.69515 30.2985 7.30866 31.8144 8.05149L59.532 21.6347C61.0478 22.3775 61.4343 23.5069 60.6914 25.0227L40.3166 66.5991C39.5738 68.1149 38.4444 68.5014 36.9286 67.7585L9.21103 54.1753C7.69522 53.4325 7.30874 52.3032 8.05157 50.7874L28.4264 9.21096Z" fill="#EDEDED"/>
<path d="M40.6741 25.1932C38.5158 24.083 33.5358 24.1176 32.4808 25.873C31.4258 27.6285 31.745 27.9332 31.8693 28.1223L33.8978 29.1597C34.888 28.367 35.7604 28.0538 37.235 28.8234C38.7097 29.593 39.4021 32.2464 37.8913 33.51C36.3805 34.7735 35.4597 35.0118 33.7237 36.3259C31.9878 37.64 30.3578 40.1324 30.344 42.8907L32.8217 44.2131C33.8032 40.7675 38.5044 39.6547 40.792 38.3946C43.0796 37.1346 43.5789 36.4637 44.409 34.8775C45.171 33.3591 45.3873 31.563 44.8052 29.7132C44.2231 27.8635 42.8325 26.3035 40.6741 25.1932ZM30.4173 45.5565C28.7452 44.7014 26.7115 45.3406 25.8702 46.9857C25.0289 48.6309 25.6966 50.6626 27.3687 51.5177C29.0409 52.3728 31.079 51.7249 31.9203 50.0798C32.7616 48.4346 32.0894 46.4117 30.4173 45.5565Z" fill="#FA6A0A"/>
</svg>
