<svg width="107" height="76" viewBox="0 0 107 76" fill="none" xmlns="http://www.w3.org/2000/svg">
<rect x="66.1831" y="6" width="40.3109" height="52.3854" transform="rotate(26.2666 66.1831 6)" fill="#200E29"/>
<path d="M44.93 58.831L72.6476 72.4142C74.5965 73.3693 76.5658 73.5064 78.5555 72.8254C80.5453 72.1445 82.0177 70.8295 82.9728 68.8806L103.348 27.3042C104.303 25.3553 104.44 23.386 103.759 21.3962C103.078 19.4065 101.763 17.9341 99.814 16.979L72.0964 3.3958C70.1475 2.44073 68.1782 2.30368 66.1884 2.98463C64.1987 3.66558 62.7263 4.98051 61.7712 6.9294L41.3964 48.5058C40.4413 50.4547 40.3042 52.424 40.9852 54.4138C41.6661 56.4035 42.9811 57.876 44.93 58.831ZM66.4269 9.21096C67.1697 7.69515 68.299 7.30866 69.8148 8.0515L97.5324 21.6347C99.0483 22.3775 99.4347 23.5069 98.6919 25.0227L78.3171 66.5991C77.5743 68.1149 76.4449 68.5014 74.9291 67.7585L47.2115 54.1753C45.6957 53.4325 45.3092 52.3032 46.0521 50.7874L66.4269 9.21096Z" fill="#EDEDED"/>
<path d="M78.6746 25.1932C76.5163 24.083 71.5363 24.1176 70.4813 25.873C69.4262 27.6285 69.7455 27.9332 69.8698 28.1223L71.8983 29.1597C72.8885 28.367 73.7609 28.0538 75.2355 28.8234C76.7102 29.5931 77.4025 32.2464 75.8918 33.51C74.381 34.7735 73.4602 35.0118 71.7242 36.3259C69.9883 37.64 68.3583 40.1324 68.3445 42.8908L70.8222 44.2131C71.8036 40.7675 76.5049 39.6547 78.7925 38.3947C81.0801 37.1346 81.5794 36.4637 82.4095 34.8775C83.1715 33.3591 83.3878 31.563 82.8057 29.7132C82.2236 27.8635 80.833 26.3035 78.6746 25.1932ZM68.4178 45.5565C66.7457 44.7014 64.712 45.3406 63.8707 46.9857C63.0294 48.6309 63.6971 50.6626 65.3692 51.5177C67.0414 52.3728 69.0795 51.7249 69.9208 50.0798C70.7621 48.4347 70.0899 46.4117 68.4178 45.5565V45.5565Z" fill="#FA6A0A"/>
<rect x="27.5571" y="5.0415" width="40.3109" height="52.3854" transform="rotate(26.2666 27.5571 5.0415)" fill="#200E29"/>
<path d="M6.92948 58.831L34.6471 72.4142C36.596 73.3693 38.5653 73.5064 40.5551 72.8254C42.5448 72.1445 44.0172 70.8295 44.9723 68.8806L65.3471 27.3042C66.3022 25.3553 66.4392 23.386 65.7583 21.3962C65.0773 19.4065 63.7624 17.9341 61.8135 16.979L34.0959 3.3958C32.147 2.44073 30.1777 2.30368 28.1879 2.98463C26.1982 3.66558 24.7258 4.98051 23.7707 6.9294L3.39588 48.5058C2.44081 50.4547 2.30375 52.424 2.98471 54.4138C3.66566 56.4035 4.98058 57.876 6.92948 58.831ZM28.4264 9.21096C29.1692 7.69515 30.2985 7.30866 31.8144 8.0515L59.532 21.6347C61.0478 22.3775 61.4343 23.5069 60.6914 25.0227L40.3166 66.5991C39.5738 68.1149 38.4444 68.5014 36.9286 67.7585L9.21103 54.1753C7.69523 53.4325 7.30874 52.3032 8.05157 50.7874L28.4264 9.21096Z" fill="#EDEDED"/>
<path d="M40.6741 25.1932C38.5158 24.083 33.5358 24.1176 32.4808 25.873C31.4258 27.6285 31.745 27.9332 31.8693 28.1223L33.8978 29.1597C34.888 28.367 35.7604 28.0538 37.235 28.8234C38.7097 29.5931 39.4021 32.2464 37.8913 33.51C36.3805 34.7735 35.4597 35.0118 33.7237 36.3259C31.9878 37.64 30.3578 40.1324 30.344 42.8908L32.8217 44.2131C33.8032 40.7675 38.5044 39.6547 40.792 38.3947C43.0796 37.1346 43.5789 36.4637 44.409 34.8775C45.171 33.3591 45.3873 31.563 44.8052 29.7132C44.2231 27.8635 42.8325 26.3035 40.6741 25.1932ZM30.4173 45.5565C28.7452 44.7014 26.7116 45.3406 25.8702 46.9857C25.0289 48.6309 25.6967 50.6626 27.3687 51.5177C29.0409 52.3728 31.079 51.7249 31.9203 50.0798C32.7617 48.4347 32.0894 46.4117 30.4173 45.5565Z" fill="#FA6A0A"/>
</svg>
