<svg width="542" height="212" viewBox="0 0 542 212" fill="none" xmlns="http://www.w3.org/2000/svg">
<path d="M48.1797 162L49.9902 151.576H42.959L35.7168 162H33.2734L41.1484 150.926C39.7539 150.316 38.7402 149.432 38.1074 148.271C37.4863 147.111 37.2461 145.781 37.3867 144.281C37.6094 141.832 38.5938 139.904 40.3398 138.498C42.0977 137.092 44.3242 136.389 47.0195 136.389L54.7891 136.406L50.3418 162H48.1797ZM39.5488 144.246C39.3613 145.805 39.6777 147.088 40.498 148.096C41.3301 149.104 42.543 149.643 44.1367 149.713L50.3066 149.73L52.293 138.252L46.9492 138.234C44.8398 138.234 43.123 138.779 41.7988 139.869C40.4863 140.959 39.7363 142.418 39.5488 144.246ZM72.6133 162.369C71.5234 162.346 70.4922 162.117 69.5195 161.684C68.5586 161.238 67.7793 160.547 67.1816 159.609L65.4238 169.312H63.3496L67.9199 142.98H69.8535L69.3613 145.67C71.0137 143.572 73.082 142.559 75.5664 142.629C77.3477 142.676 78.7363 143.338 79.7324 144.615C80.7285 145.893 81.2441 147.703 81.2793 150.047C81.291 150.785 81.2559 151.5 81.1738 152.191L81.1035 152.684C80.8105 154.734 80.2598 156.504 79.4512 157.992C78.6426 159.48 77.6582 160.594 76.498 161.332C75.3379 162.059 74.043 162.404 72.6133 162.369ZM79.082 152.191L79.1875 150.521C79.2227 148.646 78.8828 147.176 78.168 146.109C77.4531 145.043 76.3926 144.486 74.9863 144.439C73.7559 144.416 72.6367 144.721 71.6289 145.354C70.6328 145.975 69.7891 146.883 69.0977 148.078L67.5332 157.236C67.9082 158.314 68.5 159.135 69.3086 159.697C70.1289 160.26 71.1074 160.559 72.2441 160.594C73.9434 160.652 75.3789 160.02 76.5508 158.695C77.7344 157.359 78.5312 155.502 78.9414 153.123L79.082 152.191ZM91.7207 162.352C90.1973 162.328 88.8789 161.906 87.7656 161.086C86.6523 160.254 85.832 159.129 85.3047 157.711C84.7891 156.281 84.6074 154.74 84.7598 153.088L84.8125 152.49C84.9766 150.732 85.498 149.062 86.377 147.48C87.2559 145.887 88.3691 144.674 89.7168 143.842C91.0645 142.998 92.5059 142.594 94.041 142.629C95.459 142.652 96.6543 143.039 97.627 143.789C98.6113 144.539 99.3262 145.582 99.7715 146.918C100.217 148.254 100.357 149.73 100.193 151.348L100.053 152.631H86.8867L86.834 153.053C86.6582 154.33 86.752 155.555 87.1152 156.727C87.4785 157.887 88.0703 158.812 88.8906 159.504C89.7227 160.184 90.7188 160.535 91.8789 160.559C93.0039 160.594 94.0176 160.377 94.9199 159.908C95.8223 159.439 96.6543 158.812 97.416 158.027L98.6465 159.029C97.791 160.131 96.7715 160.969 95.5879 161.543C94.416 162.105 93.127 162.375 91.7207 162.352ZM93.9355 144.422C92.4121 144.363 91.0469 144.902 89.8398 146.039C88.6328 147.176 87.7246 148.775 87.1152 150.838L98.1543 150.855L98.207 150.592C98.418 148.928 98.125 147.498 97.3281 146.303C96.5312 145.096 95.4004 144.469 93.9355 144.422ZM107.928 142.98L104.939 160.225H113.078L116.084 142.98H118.176L115.188 160.225H123.256L126.262 142.98H128.354L125.049 162H102.531L105.836 142.98H107.928ZM142.1 162C142.041 161.555 142.023 161.109 142.047 160.664L142.205 159.346C141.326 160.295 140.318 161.039 139.182 161.578C138.057 162.117 136.838 162.375 135.525 162.352C133.92 162.328 132.613 161.824 131.605 160.84C130.609 159.844 130.164 158.596 130.27 157.096C130.363 155.842 130.791 154.758 131.553 153.844C132.326 152.918 133.422 152.203 134.84 151.699C136.258 151.184 137.846 150.926 139.604 150.926L143.488 150.943L143.805 148.764C143.945 147.463 143.664 146.42 142.961 145.635C142.258 144.85 141.221 144.434 139.85 144.387C138.467 144.363 137.26 144.709 136.229 145.424C135.209 146.127 134.57 147.059 134.312 148.219H132.256C132.49 146.555 133.346 145.201 134.822 144.158C136.299 143.104 138.045 142.588 140.061 142.611C142.018 142.658 143.523 143.25 144.578 144.387C145.645 145.523 146.078 147 145.879 148.816L144.297 158.379L144.156 159.908C144.121 160.541 144.168 161.168 144.297 161.789L144.262 162H142.1ZM135.877 160.506C137.166 160.553 138.396 160.248 139.568 159.592C140.752 158.924 141.73 157.98 142.504 156.762L143.225 152.561L139.867 152.543C137.734 152.543 135.994 152.924 134.646 153.686C133.299 154.436 132.555 155.514 132.414 156.92C132.309 157.951 132.578 158.801 133.223 159.469C133.879 160.137 134.764 160.482 135.877 160.506ZM153.244 151.646H158.395C158.676 150.357 159.109 149.139 159.695 147.99C160.281 146.842 161.02 145.846 161.91 145.002C163.656 143.35 165.701 142.553 168.045 142.611C170.014 142.658 171.602 143.332 172.809 144.633C174.016 145.922 174.701 147.656 174.865 149.836C174.912 150.527 174.883 151.5 174.777 152.754C174.543 154.582 173.969 156.246 173.055 157.746C172.141 159.246 170.998 160.4 169.627 161.209C168.256 162.018 166.744 162.398 165.092 162.352C163.592 162.305 162.297 161.895 161.207 161.121C160.117 160.348 159.309 159.275 158.781 157.904C158.254 156.521 158.072 155.027 158.236 153.422L152.945 153.439L151.451 162H149.359L152.682 142.98H154.756L153.244 151.646ZM160.363 152.93C160.211 154.336 160.293 155.619 160.609 156.779C160.938 157.939 161.488 158.859 162.262 159.539C163.047 160.207 164.025 160.559 165.197 160.594C166.732 160.641 168.115 160.166 169.346 159.17C170.588 158.162 171.52 156.768 172.141 154.986C172.762 153.205 172.967 151.383 172.756 149.52C172.58 148.008 172.064 146.795 171.209 145.881C170.365 144.955 169.27 144.469 167.922 144.422C165.953 144.363 164.277 145.125 162.895 146.707C161.512 148.277 160.674 150.293 160.381 152.754L160.363 152.93ZM196.732 144.246C198.186 144.27 199.445 144.65 200.512 145.389C201.578 146.115 202.363 147.123 202.867 148.412C203.383 149.701 203.576 151.131 203.447 152.701L203.395 153.299C203.254 154.576 202.914 155.783 202.375 156.92C201.848 158.057 201.162 159.041 200.318 159.873C198.572 161.596 196.469 162.422 194.008 162.352C192.473 162.328 191.143 161.918 190.018 161.121C188.904 160.324 188.084 159.24 187.557 157.869C187.041 156.486 186.877 154.975 187.064 153.334L187.293 151.576C187.82 147.732 188.928 144.633 190.615 142.277C192.314 139.91 194.5 138.457 197.172 137.918L199.352 137.531C201.438 137.121 202.633 136.184 202.938 134.719H204.73C204.461 136.898 203.195 138.346 200.934 139.061C200.219 139.283 199.24 139.488 197.998 139.676C196.135 139.945 194.529 140.713 193.182 141.979C191.846 143.244 190.727 145.096 189.824 147.533C191.805 145.295 194.107 144.199 196.732 144.246ZM196.311 146.021C194.482 145.975 192.9 146.602 191.564 147.902C190.24 149.191 189.449 150.82 189.191 152.789L189.139 153.369C188.939 155.479 189.297 157.201 190.211 158.537C191.125 159.873 192.426 160.559 194.113 160.594C195.953 160.641 197.547 159.979 198.895 158.607C200.242 157.236 201.051 155.467 201.32 153.299L201.373 152.719C201.561 150.797 201.191 149.215 200.266 147.973C199.34 146.719 198.021 146.068 196.311 146.021ZM206.33 152.314C206.541 150.475 207.104 148.793 208.018 147.27C208.932 145.734 210.068 144.568 211.428 143.771C212.799 142.975 214.281 142.594 215.875 142.629C217.445 142.652 218.781 143.086 219.883 143.93C220.996 144.762 221.805 145.904 222.309 147.357C222.824 148.799 223 150.398 222.836 152.156L222.801 152.49C222.449 155.49 221.383 157.898 219.602 159.715C217.832 161.531 215.705 162.41 213.221 162.352C211.088 162.316 209.383 161.531 208.105 159.996C206.828 158.461 206.201 156.434 206.225 153.914L206.277 152.912L206.33 152.314ZM208.369 152.912C208.217 154.307 208.316 155.596 208.668 156.779C209.031 157.951 209.605 158.871 210.391 159.539C211.176 160.207 212.154 160.559 213.326 160.594C214.592 160.617 215.746 160.295 216.789 159.627C217.844 158.959 218.711 158.016 219.391 156.797C220.07 155.578 220.51 154.23 220.709 152.754L220.762 152.174C220.973 149.912 220.621 148.066 219.707 146.637C218.805 145.195 217.492 144.457 215.77 144.422C213.895 144.363 212.271 145.09 210.9 146.602C209.541 148.102 208.709 150.1 208.404 152.596L208.369 152.912ZM242.84 142.98L239.535 162H237.426L240.432 144.791H232.926L231.414 151.893L231.01 154.002C230.459 156.803 229.639 158.848 228.549 160.137C227.459 161.426 226.047 162.047 224.312 162H223.451L223.68 160.154L224.365 160.137C225.607 160.078 226.615 159.516 227.389 158.449C228.162 157.371 228.748 155.631 229.146 153.229L229.463 151.383L231.221 142.98H242.84ZM249.52 149.889L254.424 149.924C256.17 149.936 257.6 150.387 258.713 151.277C260.049 152.355 260.646 153.855 260.506 155.777C260.354 157.652 259.574 159.158 258.168 160.295C256.762 161.432 254.975 162 252.807 162H245.354L248.658 142.98H250.732L249.52 149.889ZM249.221 151.682L247.727 160.225L252.895 160.26C254.406 160.236 255.666 159.826 256.674 159.029C257.682 158.221 258.262 157.143 258.414 155.795C258.555 154.576 258.268 153.604 257.553 152.877C256.838 152.139 255.854 151.746 254.6 151.699L249.221 151.682ZM269.541 142.98L266.553 160.225H274.691L277.697 142.98H279.789L276.801 160.225H284.869L287.875 142.98H289.967L286.662 162H264.145L267.449 142.98H269.541ZM307.246 142.98H309.408L306.104 162H303.994L306.701 146.549L294.168 162H292.023L295.328 142.98H297.402L294.713 158.449L307.246 142.98ZM325.896 162H323.787L325.316 153.281H315.42L313.908 162H311.816L315.121 142.98H317.213L315.719 151.506H325.615L327.109 142.98H329.201L325.896 162ZM338.834 160.594C340.217 160.641 341.436 160.26 342.49 159.451C343.557 158.631 344.266 157.529 344.617 156.146H346.604C346.252 158.033 345.326 159.557 343.826 160.717C342.338 161.865 340.639 162.416 338.729 162.369C337.193 162.334 335.904 161.912 334.861 161.104C333.818 160.295 333.062 159.176 332.594 157.746C332.137 156.316 331.99 154.705 332.154 152.912L332.225 152.156C332.365 150.926 332.664 149.73 333.121 148.57C333.59 147.41 334.211 146.385 334.984 145.494C335.758 144.592 336.678 143.883 337.744 143.367C338.822 142.84 340.035 142.594 341.383 142.629C343.328 142.676 344.875 143.332 346.023 144.598C347.172 145.863 347.711 147.469 347.641 149.414L345.654 149.396C345.678 147.932 345.297 146.748 344.512 145.846C343.727 144.943 342.654 144.469 341.295 144.422C339.842 144.375 338.559 144.797 337.445 145.688C336.332 146.578 335.494 147.838 334.932 149.467C334.369 151.096 334.105 152.824 334.141 154.652C334.176 156.539 334.598 157.992 335.406 159.012C336.215 160.02 337.357 160.547 338.834 160.594ZM365.922 144.773H359.225L356.219 162H354.127L357.115 144.773H350.646L350.963 142.98H366.256L365.922 144.773ZM366.643 162L369.93 142.98L376.293 142.998C378.59 143.01 380.33 143.443 381.514 144.299C382.697 145.143 383.23 146.35 383.113 147.92C383.031 148.928 382.65 149.807 381.971 150.557C381.291 151.295 380.348 151.875 379.141 152.297C380.184 152.566 380.992 153.105 381.566 153.914C382.152 154.711 382.41 155.602 382.34 156.586C382.246 158.273 381.52 159.598 380.16 160.559C378.812 161.52 377.002 162 374.729 162H366.643ZM370.246 153.246L369.016 160.242L374.799 160.26C376.381 160.26 377.658 159.938 378.631 159.293C379.615 158.637 380.166 157.723 380.283 156.551C380.4 155.555 380.096 154.77 379.369 154.195C378.643 153.609 377.605 153.299 376.258 153.264L370.246 153.246ZM370.545 151.488L375.59 151.523C377.242 151.488 378.537 151.16 379.475 150.539C380.412 149.918 380.934 149.062 381.039 147.973C381.262 145.863 379.727 144.803 376.434 144.791L371.705 144.773L370.545 151.488ZM386.646 152.314C386.857 150.475 387.42 148.793 388.334 147.27C389.248 145.734 390.385 144.568 391.744 143.771C393.115 142.975 394.598 142.594 396.191 142.629C397.762 142.652 399.098 143.086 400.199 143.93C401.312 144.762 402.121 145.904 402.625 147.357C403.141 148.799 403.316 150.398 403.152 152.156L403.117 152.49C402.766 155.49 401.699 157.898 399.918 159.715C398.148 161.531 396.021 162.41 393.537 162.352C391.404 162.316 389.699 161.531 388.422 159.996C387.145 158.461 386.518 156.434 386.541 153.914L386.594 152.912L386.646 152.314ZM388.686 152.912C388.533 154.307 388.633 155.596 388.984 156.779C389.348 157.951 389.922 158.871 390.707 159.539C391.492 160.207 392.471 160.559 393.643 160.594C394.908 160.617 396.062 160.295 397.105 159.627C398.16 158.959 399.027 158.016 399.707 156.797C400.387 155.578 400.826 154.23 401.025 152.754L401.078 152.174C401.289 149.912 400.938 148.066 400.023 146.637C399.121 145.195 397.809 144.457 396.086 144.422C394.211 144.363 392.588 145.09 391.217 146.602C389.857 148.102 389.025 150.1 388.721 152.596L388.686 152.912ZM421.943 160.594C423.326 160.641 424.545 160.26 425.6 159.451C426.666 158.631 427.375 157.529 427.727 156.146H429.713C429.361 158.033 428.436 159.557 426.936 160.717C425.447 161.865 423.748 162.416 421.838 162.369C420.303 162.334 419.014 161.912 417.971 161.104C416.928 160.295 416.172 159.176 415.703 157.746C415.246 156.316 415.1 154.705 415.264 152.912L415.334 152.156C415.475 150.926 415.773 149.73 416.23 148.57C416.699 147.41 417.32 146.385 418.094 145.494C418.867 144.592 419.787 143.883 420.854 143.367C421.932 142.84 423.145 142.594 424.492 142.629C426.438 142.676 427.984 143.332 429.133 144.598C430.281 145.863 430.82 147.469 430.75 149.414L428.764 149.396C428.787 147.932 428.406 146.748 427.621 145.846C426.836 144.943 425.764 144.469 424.404 144.422C422.951 144.375 421.668 144.797 420.555 145.688C419.441 146.578 418.604 147.838 418.041 149.467C417.479 151.096 417.215 152.824 417.25 154.652C417.285 156.539 417.707 157.992 418.516 159.012C419.324 160.02 420.467 160.547 421.943 160.594ZM432.982 162L436.27 142.98L442.633 142.998C444.93 143.01 446.67 143.443 447.854 144.299C449.037 145.143 449.57 146.35 449.453 147.92C449.371 148.928 448.99 149.807 448.311 150.557C447.631 151.295 446.688 151.875 445.48 152.297C446.523 152.566 447.332 153.105 447.906 153.914C448.492 154.711 448.75 155.602 448.68 156.586C448.586 158.273 447.859 159.598 446.5 160.559C445.152 161.52 443.342 162 441.068 162H432.982ZM436.586 153.246L435.355 160.242L441.139 160.26C442.721 160.26 443.998 159.938 444.971 159.293C445.955 158.637 446.506 157.723 446.623 156.551C446.74 155.555 446.436 154.77 445.709 154.195C444.982 153.609 443.945 153.299 442.598 153.264L436.586 153.246ZM436.885 151.488L441.93 151.523C443.582 151.488 444.877 151.16 445.814 150.539C446.752 149.918 447.273 149.062 447.379 147.973C447.602 145.863 446.066 144.803 442.773 144.791L438.045 144.773L436.885 151.488ZM452.986 152.314C453.197 150.475 453.76 148.793 454.674 147.27C455.588 145.734 456.725 144.568 458.084 143.771C459.455 142.975 460.938 142.594 462.531 142.629C464.102 142.652 465.438 143.086 466.539 143.93C467.652 144.762 468.461 145.904 468.965 147.357C469.48 148.799 469.656 150.398 469.492 152.156L469.457 152.49C469.105 155.49 468.039 157.898 466.258 159.715C464.488 161.531 462.361 162.41 459.877 162.352C457.744 162.316 456.039 161.531 454.762 159.996C453.484 158.461 452.857 156.434 452.881 153.914L452.934 152.912L452.986 152.314ZM455.025 152.912C454.873 154.307 454.973 155.596 455.324 156.779C455.688 157.951 456.262 158.871 457.047 159.539C457.832 160.207 458.811 160.559 459.982 160.594C461.248 160.617 462.402 160.295 463.445 159.627C464.5 158.959 465.367 158.016 466.047 156.797C466.727 155.578 467.166 154.23 467.365 152.754L467.418 152.174C467.629 149.912 467.277 148.066 466.363 146.637C465.461 145.195 464.148 144.457 462.426 144.422C460.551 144.363 458.928 145.09 457.557 146.602C456.197 148.102 455.365 150.1 455.061 152.596L455.025 152.912ZM487.598 142.98H489.76L486.455 162H484.346L487.053 146.549L474.52 162H472.375L475.68 142.98H477.754L475.064 158.449L487.598 142.98ZM499.727 150.662L505.896 142.98H508.498L500.693 152.42L505.668 162H503.348L499.375 153.984L492.871 162H490.305L498.426 152.209L493.662 142.98H495.982L499.727 150.662ZM104.043 204H101.934L104.939 186.791H95.043L92.0547 204H89.9629L93.2676 184.98H107.348L104.043 204ZM117.596 204.369C116.506 204.346 115.475 204.117 114.502 203.684C113.541 203.238 112.762 202.547 112.164 201.609L110.406 211.312H108.332L112.902 184.98H114.836L114.344 187.67C115.996 185.572 118.064 184.559 120.549 184.629C122.33 184.676 123.719 185.338 124.715 186.615C125.711 187.893 126.227 189.703 126.262 192.047C126.273 192.785 126.238 193.5 126.156 194.191L126.086 194.684C125.793 196.734 125.242 198.504 124.434 199.992C123.625 201.48 122.641 202.594 121.48 203.332C120.32 204.059 119.025 204.404 117.596 204.369ZM124.064 194.191L124.17 192.521C124.205 190.646 123.865 189.176 123.15 188.109C122.436 187.043 121.375 186.486 119.969 186.439C118.738 186.416 117.619 186.721 116.611 187.354C115.615 187.975 114.771 188.883 114.08 190.078L112.516 199.236C112.891 200.314 113.482 201.135 114.291 201.697C115.111 202.26 116.09 202.559 117.227 202.594C118.926 202.652 120.361 202.02 121.533 200.695C122.717 199.359 123.514 197.502 123.924 195.123L124.064 194.191ZM129.672 194.314C129.883 192.475 130.445 190.793 131.359 189.27C132.273 187.734 133.41 186.568 134.77 185.771C136.141 184.975 137.623 184.594 139.217 184.629C140.787 184.652 142.123 185.086 143.225 185.93C144.338 186.762 145.146 187.904 145.65 189.357C146.166 190.799 146.342 192.398 146.178 194.156L146.143 194.49C145.791 197.49 144.725 199.898 142.943 201.715C141.174 203.531 139.047 204.41 136.562 204.352C134.43 204.316 132.725 203.531 131.447 201.996C130.17 200.461 129.543 198.434 129.566 195.914L129.619 194.912L129.672 194.314ZM131.711 194.912C131.559 196.307 131.658 197.596 132.01 198.779C132.373 199.951 132.947 200.871 133.732 201.539C134.518 202.207 135.496 202.559 136.668 202.594C137.934 202.617 139.088 202.295 140.131 201.627C141.186 200.959 142.053 200.016 142.732 198.797C143.412 197.578 143.852 196.23 144.051 194.754L144.104 194.174C144.314 191.912 143.963 190.066 143.049 188.637C142.146 187.195 140.834 186.457 139.111 186.422C137.236 186.363 135.613 187.09 134.242 188.602C132.883 190.102 132.051 192.1 131.746 194.596L131.711 194.912ZM159.238 186.246C160.691 186.27 161.951 186.65 163.018 187.389C164.084 188.115 164.869 189.123 165.373 190.412C165.889 191.701 166.082 193.131 165.953 194.701L165.9 195.299C165.76 196.576 165.42 197.783 164.881 198.92C164.354 200.057 163.668 201.041 162.824 201.873C161.078 203.596 158.975 204.422 156.514 204.352C154.979 204.328 153.648 203.918 152.523 203.121C151.41 202.324 150.59 201.24 150.062 199.869C149.547 198.486 149.383 196.975 149.57 195.334L149.799 193.576C150.326 189.732 151.434 186.633 153.121 184.277C154.82 181.91 157.006 180.457 159.678 179.918L161.857 179.531C163.943 179.121 165.139 178.184 165.443 176.719H167.236C166.967 178.898 165.701 180.346 163.439 181.061C162.725 181.283 161.746 181.488 160.504 181.676C158.641 181.945 157.035 182.713 155.688 183.979C154.352 185.244 153.232 187.096 152.33 189.533C154.311 187.295 156.613 186.199 159.238 186.246ZM158.816 188.021C156.988 187.975 155.406 188.602 154.07 189.902C152.746 191.191 151.955 192.82 151.697 194.789L151.645 195.369C151.445 197.479 151.803 199.201 152.717 200.537C153.631 201.873 154.932 202.559 156.619 202.594C158.459 202.641 160.053 201.979 161.4 200.607C162.748 199.236 163.557 197.467 163.826 195.299L163.879 194.719C164.066 192.797 163.697 191.215 162.771 189.973C161.846 188.719 160.527 188.068 158.816 188.021ZM185.869 184.98L182.564 204H180.455L183.461 186.791H175.955L174.443 193.893L174.039 196.002C173.488 198.803 172.668 200.848 171.578 202.137C170.488 203.426 169.076 204.047 167.342 204H166.48L166.709 202.154L167.395 202.137C168.637 202.078 169.645 201.516 170.418 200.449C171.191 199.371 171.777 197.631 172.176 195.229L172.492 193.383L174.25 184.98H185.869ZM195.695 204.352C194.172 204.328 192.854 203.906 191.74 203.086C190.627 202.254 189.807 201.129 189.279 199.711C188.764 198.281 188.582 196.74 188.734 195.088L188.787 194.49C188.951 192.732 189.473 191.062 190.352 189.48C191.23 187.887 192.344 186.674 193.691 185.842C195.039 184.998 196.48 184.594 198.016 184.629C199.434 184.652 200.629 185.039 201.602 185.789C202.586 186.539 203.301 187.582 203.746 188.918C204.191 190.254 204.332 191.73 204.168 193.348L204.027 194.631H190.861L190.809 195.053C190.633 196.33 190.727 197.555 191.09 198.727C191.453 199.887 192.045 200.812 192.865 201.504C193.697 202.184 194.693 202.535 195.854 202.559C196.979 202.594 197.992 202.377 198.895 201.908C199.797 201.439 200.629 200.812 201.391 200.027L202.621 201.029C201.766 202.131 200.746 202.969 199.562 203.543C198.391 204.105 197.102 204.375 195.695 204.352ZM197.91 186.422C196.387 186.363 195.021 186.902 193.814 188.039C192.607 189.176 191.699 190.775 191.09 192.838L202.129 192.855L202.182 192.592C202.393 190.928 202.1 189.498 201.303 188.303C200.506 187.096 199.375 186.469 197.91 186.422ZM217.053 201.1L227.16 184.98H229.797L226.475 204H224.383L227.072 188.619L217.404 204H215.91L211.445 188.021L208.668 204H206.576L209.881 184.98H212.553L217.053 201.1ZM248.113 202.594C249.496 202.641 250.715 202.26 251.77 201.451C252.836 200.631 253.545 199.529 253.896 198.146H255.883C255.531 200.033 254.605 201.557 253.105 202.717C251.617 203.865 249.918 204.416 248.008 204.369C246.473 204.334 245.184 203.912 244.141 203.104C243.098 202.295 242.342 201.176 241.873 199.746C241.416 198.316 241.27 196.705 241.434 194.912L241.504 194.156C241.645 192.926 241.943 191.73 242.4 190.57C242.869 189.41 243.49 188.385 244.264 187.494C245.037 186.592 245.957 185.883 247.023 185.367C248.102 184.84 249.314 184.594 250.662 184.629C252.607 184.676 254.154 185.332 255.303 186.598C256.451 187.863 256.99 189.469 256.92 191.414L254.934 191.396C254.957 189.932 254.576 188.748 253.791 187.846C253.006 186.943 251.934 186.469 250.574 186.422C249.121 186.375 247.838 186.797 246.725 187.688C245.611 188.578 244.773 189.838 244.211 191.467C243.648 193.096 243.385 194.824 243.42 196.652C243.455 198.539 243.877 199.992 244.686 201.012C245.494 202.02 246.637 202.547 248.113 202.594ZM281.828 204H279.719L282.725 186.791H272.828L269.84 204H267.748L271.053 184.98H285.133L281.828 204ZM287.91 194.314C288.121 192.475 288.684 190.793 289.598 189.27C290.512 187.734 291.648 186.568 293.008 185.771C294.379 184.975 295.861 184.594 297.455 184.629C299.025 184.652 300.361 185.086 301.463 185.93C302.576 186.762 303.385 187.904 303.889 189.357C304.404 190.799 304.58 192.398 304.416 194.156L304.381 194.49C304.029 197.49 302.963 199.898 301.182 201.715C299.412 203.531 297.285 204.41 294.801 204.352C292.668 204.316 290.963 203.531 289.686 201.996C288.408 200.461 287.781 198.434 287.805 195.914L287.857 194.912L287.91 194.314ZM289.949 194.912C289.797 196.307 289.896 197.596 290.248 198.779C290.611 199.951 291.186 200.871 291.971 201.539C292.756 202.207 293.734 202.559 294.906 202.594C296.172 202.617 297.326 202.295 298.369 201.627C299.424 200.959 300.291 200.016 300.971 198.797C301.65 197.578 302.09 196.23 302.289 194.754L302.342 194.174C302.553 191.912 302.201 190.066 301.287 188.637C300.385 187.195 299.072 186.457 297.35 186.422C295.475 186.363 293.852 187.09 292.48 188.602C291.121 190.102 290.289 192.1 289.984 194.596L289.949 194.912ZM317.846 201.1L327.953 184.98H330.59L327.268 204H325.176L327.865 188.619L318.197 204H316.703L312.238 188.021L309.461 204H307.369L310.674 184.98H313.346L317.846 201.1ZM333.367 194.314C333.578 192.475 334.141 190.793 335.055 189.27C335.969 187.734 337.105 186.568 338.465 185.771C339.836 184.975 341.318 184.594 342.912 184.629C344.482 184.652 345.818 185.086 346.92 185.93C348.033 186.762 348.842 187.904 349.346 189.357C349.861 190.799 350.037 192.398 349.873 194.156L349.838 194.49C349.486 197.49 348.42 199.898 346.639 201.715C344.869 203.531 342.742 204.41 340.258 204.352C338.125 204.316 336.42 203.531 335.143 201.996C333.865 200.461 333.238 198.434 333.262 195.914L333.314 194.912L333.367 194.314ZM335.406 194.912C335.254 196.307 335.354 197.596 335.705 198.779C336.068 199.951 336.643 200.871 337.428 201.539C338.213 202.207 339.191 202.559 340.363 202.594C341.629 202.617 342.783 202.295 343.826 201.627C344.881 200.959 345.748 200.016 346.428 198.797C347.107 197.578 347.547 196.23 347.746 194.754L347.799 194.174C348.01 191.912 347.658 190.066 346.744 188.637C345.842 187.195 344.529 186.457 342.807 186.422C340.932 186.363 339.309 187.09 337.938 188.602C336.578 190.102 335.746 192.1 335.441 194.596L335.406 194.912ZM358.047 184.98L355.059 202.225H363.215L366.221 184.98H368.312L365.324 202.225H373.393L376.381 184.98H378.473L375.484 202.225H377.699L376.258 209.643H374.324L375.326 204H352.65L355.955 184.98H358.047ZM385.205 191.889L390.109 191.924C391.855 191.936 393.285 192.387 394.398 193.277C395.734 194.355 396.332 195.855 396.191 197.777C396.039 199.652 395.26 201.158 393.854 202.295C392.447 203.432 390.66 204 388.492 204H381.039L384.344 184.98H386.418L385.205 191.889ZM384.906 193.682L383.412 202.225L388.58 202.26C390.092 202.236 391.352 201.826 392.359 201.029C393.367 200.221 393.947 199.143 394.1 197.795C394.24 196.576 393.953 195.604 393.238 194.877C392.523 194.139 391.539 193.746 390.285 193.699L384.906 193.682ZM403.785 193.646H408.936C409.217 192.357 409.65 191.139 410.236 189.99C410.822 188.842 411.561 187.846 412.451 187.002C414.197 185.35 416.242 184.553 418.586 184.611C420.555 184.658 422.143 185.332 423.35 186.633C424.557 187.922 425.242 189.656 425.406 191.836C425.453 192.527 425.424 193.5 425.318 194.754C425.084 196.582 424.51 198.246 423.596 199.746C422.682 201.246 421.539 202.4 420.168 203.209C418.797 204.018 417.285 204.398 415.633 204.352C414.133 204.305 412.838 203.895 411.748 203.121C410.658 202.348 409.85 201.275 409.322 199.904C408.795 198.521 408.613 197.027 408.777 195.422L403.486 195.439L401.992 204H399.9L403.223 184.98H405.297L403.785 193.646ZM410.904 194.93C410.752 196.336 410.834 197.619 411.15 198.779C411.479 199.939 412.029 200.859 412.803 201.539C413.588 202.207 414.566 202.559 415.738 202.594C417.273 202.641 418.656 202.166 419.887 201.17C421.129 200.162 422.061 198.768 422.682 196.986C423.303 195.205 423.508 193.383 423.297 191.52C423.121 190.008 422.605 188.795 421.75 187.881C420.906 186.955 419.811 186.469 418.463 186.422C416.494 186.363 414.818 187.125 413.436 188.707C412.053 190.277 411.215 192.293 410.922 194.754L410.904 194.93ZM428.307 202.734C428.342 202.324 428.506 201.979 428.799 201.697C429.104 201.404 429.461 201.252 429.871 201.24C430.293 201.229 430.639 201.369 430.908 201.662C431.178 201.955 431.295 202.312 431.26 202.734C431.236 203.145 431.072 203.484 430.768 203.754C430.475 204.012 430.123 204.146 429.713 204.158C429.303 204.17 428.957 204.041 428.676 203.771C428.406 203.502 428.283 203.156 428.307 202.734ZM436.814 202.734C436.85 202.324 437.014 201.979 437.307 201.697C437.611 201.404 437.969 201.252 438.379 201.24C438.801 201.229 439.146 201.369 439.416 201.662C439.686 201.955 439.803 202.312 439.768 202.734C439.744 203.145 439.58 203.484 439.275 203.754C438.982 204.012 438.631 204.146 438.221 204.158C437.811 204.17 437.465 204.041 437.184 203.771C436.914 203.502 436.791 203.156 436.814 202.734ZM445.322 202.734C445.357 202.324 445.521 201.979 445.814 201.697C446.119 201.404 446.477 201.252 446.887 201.24C447.309 201.229 447.654 201.369 447.924 201.662C448.193 201.955 448.311 202.312 448.275 202.734C448.252 203.145 448.088 203.484 447.783 203.754C447.49 204.012 447.139 204.146 446.729 204.158C446.318 204.17 445.973 204.041 445.691 203.771C445.422 203.502 445.299 203.156 445.322 202.734Z" fill="#FA6A0A"/>
<path d="M275.224 68L273.157 70.8048C271.506 73.0468 270.291 75.0583 269.733 77.5929C269.217 79.9388 269.284 82.7293 269.951 86.3052L278.106 84.5586L267.445 104.611L249.506 90.684L257.705 88.9279C256.69 83.0233 257.669 78.2524 260.626 74.731C263.079 71.8141 266.897 69.7833 271.987 68.6932L275.224 68Z" fill="white"/>
<path d="M250.929 58.831L278.647 72.4142C280.595 73.3693 282.565 73.5064 284.555 72.8254C286.544 72.1444 288.017 70.8295 288.972 68.8806L309.347 27.3042C310.302 25.3553 310.439 23.386 309.758 21.3962C309.077 19.4065 307.762 17.9341 305.813 16.979L278.095 3.3958C276.147 2.44073 274.177 2.30368 272.187 2.98463C270.198 3.66558 268.725 4.98051 267.77 6.9294L247.395 48.5058C246.44 50.4547 246.303 52.424 246.984 54.4138C247.665 56.4035 248.98 57.876 250.929 58.831ZM272.426 9.21096C273.169 7.69515 274.298 7.30866 275.814 8.05149L303.531 21.6347C305.047 22.3775 305.434 23.5069 304.691 25.0227L284.316 66.5991C283.573 68.1149 282.444 68.5014 280.928 67.7585L253.211 54.1753C251.695 53.4325 251.308 52.3032 252.051 50.7874L272.426 9.21096Z" fill="#EDEDED"/>
<path d="M284.674 25.1932C282.515 24.083 277.535 24.1176 276.48 25.873C275.425 27.6285 275.745 27.9332 275.869 28.1223L277.897 29.1597C278.887 28.367 279.76 28.0538 281.235 28.8234C282.709 29.593 283.402 32.2464 281.891 33.51C280.38 34.7735 279.459 35.0118 277.723 36.3259C275.987 37.64 274.357 40.1324 274.343 42.8907L276.821 44.2131C277.803 40.7675 282.504 39.6547 284.792 38.3946C287.079 37.1346 287.578 36.4637 288.409 34.8775C289.171 33.3591 289.387 31.563 288.805 29.7132C288.223 27.8635 286.832 26.3035 284.674 25.1932ZM274.417 45.5565C272.745 44.7014 270.711 45.3406 269.87 46.9857C269.028 48.6309 269.696 50.6626 271.368 51.5177C273.04 52.3728 275.079 51.7249 275.92 50.0798C276.761 48.4346 276.089 46.4117 274.417 45.5565V45.5565Z" fill="#FA6A0A"/>
</svg>
