<svg width="77" height="82" viewBox="0 0 77 82" fill="none" xmlns="http://www.w3.org/2000/svg">
<path d="M63.9375 56.0358C61.9431 56.034 59.9749 56.4878 58.1849 57.3623C56.395 58.2367 54.8311 59.5085 53.6142 61.0793L53.5923 61.1084L25.4232 45.2165C26.3819 42.4563 26.3728 39.4548 25.3976 36.7003L25.4269 36.7914L53.5959 20.8995C55.5665 23.4374 58.4126 25.1601 61.5854 25.7354C64.7582 26.3106 68.0329 25.6977 70.7779 24.0149C73.523 22.332 75.5439 19.6983 76.4511 16.6219C77.3582 13.5454 77.0872 10.244 75.6904 7.35432C74.2936 4.46469 71.8699 2.19152 68.8867 0.973228C65.9035 -0.245067 62.5722 -0.322197 59.5352 0.756713C56.4982 1.83562 53.9706 3.99415 52.44 6.816C50.9093 9.63785 50.484 12.9231 51.2461 16.0383L51.2277 15.9508L22.5785 32.1124C20.7858 30.2168 18.4616 28.9003 15.9072 28.3335C13.3528 27.7667 10.686 27.9758 8.2526 28.9337C5.81919 29.8916 3.73139 31.5541 2.25989 33.7057C0.788397 35.8572 0.00107309 38.3986 1.09614e-06 41.0002C-0.00107089 43.6019 0.784158 46.1439 2.25388 48.2966C3.7236 50.4494 5.81003 52.1136 8.24265 53.0735C10.6753 54.0333 13.3419 54.2446 15.8968 53.6799C18.4516 53.1152 20.7769 51.8006 22.5711 49.9065L22.5785 49.8992L51.2277 66.0607C50.6098 68.6843 50.8286 71.4341 51.8537 73.9285C52.8788 76.4229 54.6594 78.5384 56.9486 79.9815C59.2377 81.4246 61.922 82.1238 64.6289 81.982C67.3359 81.8403 69.9313 80.8646 72.0553 79.1904C74.1792 77.5162 75.7264 75.2265 76.4822 72.6388C77.238 70.0511 77.1649 67.2937 76.273 64.7492C75.3812 62.2047 73.7149 59.9991 71.5051 58.4384C69.2954 56.8777 66.6519 56.0393 63.9412 56.0395L63.9375 56.0358ZM63.9375 5.47406C65.4333 5.47406 66.8955 5.91497 68.1392 6.74103C69.3829 7.56709 70.3522 8.74121 70.9246 10.1149C71.4971 11.4886 71.6468 13.0002 71.355 14.4585C71.0632 15.9168 70.3429 17.2563 69.2852 18.3077C68.2275 19.3591 66.88 20.0751 65.4129 20.3651C63.9459 20.6552 62.4253 20.5063 61.0433 19.9373C59.6614 19.3683 58.4803 18.4048 57.6493 17.1685C56.8182 15.9322 56.3747 14.4787 56.3747 12.9918C56.3766 10.9992 57.1735 9.08871 58.5906 7.67938C60.0077 6.27005 61.9293 5.47695 63.9338 5.47406H63.9375ZM13.0727 48.5217C11.5769 48.5217 10.1147 48.0808 8.87105 47.2547C7.62735 46.4287 6.658 45.2546 6.08559 43.8809C5.51318 42.5072 5.36341 40.9956 5.65522 39.5373C5.94704 38.079 6.66733 36.7395 7.725 35.6881C8.78268 34.6367 10.1302 33.9207 11.5973 33.6306C13.0643 33.3406 14.585 33.4894 15.9669 34.0585C17.3488 34.6275 18.53 35.591 19.361 36.8273C20.192 38.0636 20.6355 39.5171 20.6355 41.004C20.6336 42.9966 19.8367 44.9071 18.4196 46.3164C17.0025 47.7257 15.0809 48.5188 13.0764 48.5217H13.0727ZM63.9375 76.5339C62.4417 76.5339 60.9795 76.0929 59.7358 75.2669C58.4921 74.4408 57.5228 73.2667 56.9504 71.893C56.378 70.5193 56.2282 69.0078 56.52 67.5495C56.8118 66.0912 57.5321 64.7516 58.5898 63.7002C59.6475 62.6489 60.995 61.9329 62.4621 61.6428C63.9291 61.3527 65.4497 61.5016 66.8317 62.0706C68.2136 62.6396 69.3947 63.6032 70.2258 64.8395C71.0568 66.0757 71.5003 67.5292 71.5003 69.0161C71.4984 71.0087 70.7015 72.9192 69.2844 74.3285C67.8673 75.7379 65.9457 76.531 63.9412 76.5339H63.9375Z" fill="#FA6A0A"/>
</svg>
